<svg xmlns="http://www.w3.org/2000/svg" viewBox="0 0 512 512">
  <defs>
    <linearGradient id="grad" x1="0%" y1="0%" x2="100%" y2="100%">
      <stop offset="0%" style="stop-color:#7c3aed;stop-opacity:1" />
      <stop offset="100%" style="stop-color:#10b981;stop-opacity:1" />
    </linearGradient>
  </defs>
  <rect width="512" height="512" rx="96" fill="url(#grad)"/>
  <path d="M256 120c-75 0-136 61-136 136s61 136 136 136 136-61 136-136-61-136-136-136zm0 48c24.5 0 46.5 10 62.5 26l-35 35c-7-7-17-12-27.5-12-22 0-40 18-40 40s18 40 40 40c10.5 0 20.5-5 27.5-12l35 35c-16 16-38 26-62.5 26-48.5 0-88-39.5-88-88s39.5-89 88-89z" fill="white"/>
  <circle cx="256" cy="256" r="24" fill="white"/>
</svg>
